# xmcd CD database file
#
# Track frame offsets:
#	150
#	14627
#	28382
#	44092
#	58505
#
# Disc length: 989 seconds
#
# Revision: 2
# Processed by: cddbd v1.4b41PL1 Copyright (c) Steve Scherf et al.
# Submitted via: Feurio! 1.50.2ß - http://www.feurio.com
#
DISCID=4603db05
DTITLE=Blue Eyes - New York, New York
DYEAR=1900
DGENRE=
TTITLE0=New York, New York, radio edit
TTITLE1=New York, New York, dance mix
TTITLE2=New York, New York, hot mix
TTITLE3=New York, New York, karaoke mix
TTITLE4=Saxdance
EXTD=
EXTT0=
EXTT1=
EXTT2=
EXTT3=
EXTT4=
PLAYORDER=
